PathFileType	4	(X/Y/Z)	C:\Git\research_data\torsion_deformities_healthy_kinematics\simulations\P03\pre\Static01\markers_HJC.trc
DataRate	CameraRate	NumFrames	NumMarkers	Units	OrigDataRate	OrigDataStartFrame	OrigNumFrames
150	150	5	38	mm	150	38	150
Frame#	Time	C7			T10			CLAV			STRN			RBAK			SACR			LASI			RASI			LT1			LT2			LT3			LS1			LS2			LS3			LHEE			LTOE			RT1			RT2			RT3			RS1			RS2			RS3			RHEE			RTOE			LKNE			LKNM			LANK			LANM			RKNM			RKNE			RANM			RANK			LKJC			RKJC			LAJC			RAJC			LHJC			RHJC		
		X1	Y1	Z1	X2	Y2	Z2	X3	Y3	Z3	X4	Y4	Z4	X5	Y5	Z5	X6	Y6	Z6	X7	Y7	Z7	X8	Y8	Z8	X9	Y9	Z9	X10	Y10	Z10	X11	Y11	Z11	X12	Y12	Z12	X13	Y13	Z13	X14	Y14	Z14	X15	Y15	Z15	X16	Y16	Z16	X17	Y17	Z17	X18	Y18	Z18	X19	Y19	Z19	X20	Y20	Z20	X21	Y21	Z21	X22	Y22	Z22	X23	Y23	Z23	X24	Y24	Z24	X25	Y25	Z25	X26	Y26	Z26	X27	Y27	Z27	X28	Y28	Z28	X29	Y29	Z29	X30	Y30	Z30	X31	Y31	Z31	X32	Y32	Z32	X33	Y33	Z33	X34	Y34	Z34	X35	Y35	Z35	X36	Y36	Z36	X37	Y37	Z37	X38	Y38	Z38	

38	0.246667	443.150604	1274.475220	-963.690613	445.182922	1095.188477	-914.524658	427.156464	1213.159912	-1094.669312	422.601898	1160.300415	-1127.307129	542.186829	1177.685425	-933.252930	430.417084	875.678101	-916.281494	278.216827	870.770874	-1071.896973	520.928162	879.237732	-1124.898193	243.912323	586.133667	-1127.993652	231.994156	474.475128	-1079.067505	277.195404	531.708435	-1202.903687	282.760773	217.188309	-1033.187988	342.052490	148.315979	-950.363159	254.492096	131.875214	-1062.418945	367.714752	41.745056	-973.621948	262.381958	41.360535	-1083.315918	592.430298	608.161804	-1132.925171	586.606689	510.383850	-1055.876709	582.518372	534.817688	-1197.833130	587.345154	266.849731	-1088.626953	562.326538	217.039581	-981.350708	582.445496	176.695984	-1116.626465	500.256683	44.955051	-981.830261	570.595642	41.764217	-1123.359985	268.745453	432.927277	-1147.940674	368.066681	421.617737	-1163.378662	304.675507	49.616470	-994.182007	356.899078	47.176437	-1044.756226	466.138977	424.627838	-1164.300049	568.692932	440.211182	-1164.586182	490.773285	52.907597	-1062.673218	552.325195	47.593155	-1019.060974	318.406067	427.272491	-1155.659668	517.415955	432.419495	-1164.443115	330.787292	48.396454	-1019.469116	521.549194	50.250378	-1040.867065	326.850245	786.824874	-1026.549186	501.295316	792.910299	-1064.643006	
39	0.253333	443.215607	1274.453003	-963.759216	445.237518	1095.195801	-914.510803	427.202484	1213.117065	-1094.678101	422.643555	1160.242798	-1127.309326	542.229980	1177.671753	-933.247375	430.498871	875.638794	-916.216187	278.283386	870.748474	-1071.817749	521.001404	879.190857	-1124.831421	243.948883	586.135193	-1127.942383	232.011276	474.471375	-1079.052246	277.215485	531.718750	-1202.864258	282.782593	217.189468	-1033.176025	342.072083	148.305573	-950.361206	254.500824	131.878265	-1062.408569	367.720825	41.737183	-973.618286	262.386444	41.374439	-1083.318359	592.498230	608.135498	-1132.887085	586.652588	510.339813	-1055.842896	582.575317	534.809021	-1197.793335	587.373474	266.833649	-1088.636230	562.370178	217.011627	-981.371826	582.467285	176.679840	-1116.633911	500.259583	44.952019	-981.829529	570.595398	41.760857	-1123.359497	268.782318	432.918518	-1147.888672	368.081116	421.617859	-1163.383057	304.686829	49.613834	-994.182739	356.907776	47.175941	-1044.761108	466.188782	424.623993	-1164.307617	568.737061	440.194397	-1164.575439	490.773773	52.900417	-1062.665649	552.321838	47.588993	-1019.049438	318.431702	427.268188	-1155.635864	517.462891	432.409210	-1164.441528	330.797302	48.394890	-1019.471863	521.547791	50.244705	-1040.857544	326.911271	786.794559	-1026.474480	501.360666	792.862376	-1064.577144	
40	0.260000	443.276367	1274.434082	-963.823303	445.292542	1095.205811	-914.499817	427.252594	1213.069214	-1094.692505	422.687408	1160.177490	-1127.313843	542.276062	1177.666260	-933.246216	430.577118	875.593018	-916.158508	278.351898	870.729675	-1071.740723	521.081055	879.142578	-1124.761475	243.975067	586.137695	-1127.887573	232.019745	474.467163	-1079.027588	277.223450	531.725464	-1202.821411	282.793427	217.190384	-1033.162354	342.084473	148.296555	-950.359375	254.505219	131.878983	-1062.397705	367.722290	41.731869	-973.611572	262.388580	41.384193	-1083.320801	592.568726	608.113770	-1132.840576	586.695129	510.299591	-1055.804688	582.637024	534.802612	-1197.749634	587.402588	266.819794	-1088.639893	562.403259	216.989883	-981.385315	582.490417	176.665924	-1116.636841	500.261688	44.948982	-981.828735	570.595215	41.758575	-1123.360352	268.827423	432.895538	-1147.798828	368.089844	421.615814	-1163.391357	304.691803	49.611385	-994.182800	356.912933	47.176315	-1044.765991	466.240234	424.624756	-1164.306763	568.786072	440.182220	-1164.553955	490.774597	52.895264	-1062.660034	552.318726	47.585014	-1019.035461	318.458649	427.255676	-1155.595093	517.513184	432.403473	-1164.430420	330.802368	48.393848	-1019.474365	521.546692	50.240139	-1040.847778	326.970810	786.763896	-1026.406155	501.427559	792.810502	-1064.513765	
41	0.266667	443.332611	1274.420654	-963.881165	445.348602	1095.220093	-914.491211	427.306305	1213.018555	-1094.711792	422.734985	1160.106812	-1127.321777	542.324585	1177.669556	-933.252136	430.649658	875.544861	-916.106506	278.419922	870.715637	-1071.665283	521.165344	879.095581	-1124.688354	243.992126	586.141418	-1127.830566	232.021088	474.464172	-1078.994507	277.221100	531.730408	-1202.776001	282.792908	217.190689	-1033.148071	342.089020	148.289108	-950.357239	254.506729	131.877808	-1062.389771	367.719910	41.729988	-973.604126	262.388916	41.390549	-1083.322754	592.641174	608.096863	-1132.785522	586.733887	510.264252	-1055.763184	582.706360	534.798828	-1197.701904	587.432678	266.808960	-1088.638916	562.428101	216.974518	-981.391663	582.513245	176.653885	-1116.635010	500.263092	44.946182	-981.827759	570.595642	41.757389	-1123.362061	268.852570	432.884460	-1147.725586	368.088745	421.612976	-1163.386963	304.690887	49.609936	-994.183838	356.915039	47.177402	-1044.770508	466.292450	424.628387	-1164.297974	568.840088	440.174591	-1164.522461	490.775818	52.892746	-1062.656738	552.316895	47.581398	-1019.021301	318.470642	427.248718	-1155.556274	517.566284	432.401489	-1164.410278	330.802979	48.393669	-1019.477112	521.546387	50.237072	-1040.839111	327.027428	786.734692	-1026.342439	501.494991	792.757580	-1064.451524	
42	0.273333	443.385345	1274.414307	-963.932190	445.407135	1095.239258	-914.484924	427.362488	1212.968140	-1094.733643	422.788391	1160.033081	-1127.333008	542.375305	1177.680786	-933.267212	430.715607	875.498901	-916.057007	278.484711	870.706787	-1071.592163	521.251648	879.052429	-1124.612061	244.001480	586.146362	-1127.773804	232.017334	474.464569	-1078.955566	277.210419	531.735840	-1202.729248	282.781952	217.189957	-1033.134033	342.086334	148.283859	-950.354248	254.505951	131.875778	-1062.386353	367.714813	41.731667	-973.597717	262.388062	41.394905	-1083.323853	592.713989	608.084412	-1132.723022	586.768250	510.235229	-1055.717896	582.783997	534.797485	-1197.649658	587.463379	266.801422	-1088.634155	562.448303	216.964310	-981.390808	582.534424	176.642975	-1116.628174	500.264008	44.943722	-981.826721	570.596863	41.757011	-1123.363892	268.850891	432.893158	-1147.684082	368.079987	421.612213	-1163.369507	304.685608	49.609444	-994.186157	356.914917	47.179058	-1044.774414	466.343597	424.632813	-1164.282349	568.897827	440.171021	-1164.483154	490.777496	52.892937	-1062.655518	552.316956	47.578098	-1019.009338	318.465454	427.252686	-1155.526733	517.620667	432.401917	-1164.382690	330.800262	48.394253	-1019.480225	521.547180	50.235516	-1040.832397	327.079420	786.708607	-1026.281787	501.561348	792.706803	-1064.388351	
